<svg id="Layer_1" enable-background="new 0 0 512 512" height="512" viewBox="0 0 512 512" width="512" xmlns="http://www.w3.org/2000/svg"><g><g fill="#013772"><path d="m159.6 0c-8.284 0-15 6.716-15 15v32.133c0 8.284 6.716 15 15 15s15-6.716 15-15v-32.133c0-8.284-6.716-15-15-15z"/><path d="m47.133 144.6h-32.133c-8.284 0-15 6.716-15 15s6.716 15 15 15h32.133c8.284 0 15-6.716 15-15s-6.716-15-15-15z"/><path d="m67.957 46.744c-5.859-5.858-15.356-5.856-21.213.002s-5.856 15.356.002 21.213l34.085 34.078c5.86 5.857 15.358 5.854 21.213-.003 5.857-5.858 5.856-15.356-.002-21.213z"/></g><g fill="#010043"><path d="m352.401 449.867c-8.284 0-15 6.716-15 15v32.133c0 8.284 6.716 15 15 15s15-6.716 15-15v-32.133c0-8.284-6.716-15-15-15z"/><path d="m497 337.4h-32.133c-8.284 0-15 6.716-15 15s6.716 15 15 15h32.133c8.284 0 15-6.716 15-15s-6.716-15-15-15z"/><path d="m431.168 409.955c-5.858-5.855-15.356-5.856-21.213.003-5.857 5.858-5.856 15.356.002 21.214l34.086 34.077c5.859 5.857 15.357 5.854 21.213-.003 5.857-5.858 5.856-15.356-.002-21.214z"/></g><g><path d="m308.23 34.938-24.264 24.264c-46.584 46.593-46.584 122.241 0 168.825 46.592 46.592 122.241 46.592 168.833 0l24.256-24.256c46.592-46.592 46.592-122.241 0-168.833-46.583-46.584-122.232-46.584-168.825 0zm120.552 120.807-12.13 12.13c-20.011 20.019-52.515 20.019-72.534 0-20.011-20.01-20.879-51.646-.869-71.665l12.999-12.999c20.019-20.011 52.523-20.011 72.534 0 20.02 20.02 20.019 52.523 0 72.534z" fill="#016ea1"/><path d="m477.056 34.938-48.274 48.273c20.019 20.019 20.019 52.523 0 72.534l-12.13 12.13c-20.011 20.019-52.515 20.019-72.534 0l-60.152 60.152c46.592 46.592 122.241 46.592 168.833 0l24.256-24.256c46.593-46.592 46.593-122.241.001-168.833z" fill="#013772"/><path d="m356.248 107.472c-46.584-46.584-122.232-46.584-168.825 0-21.376 21.376-32.939 48.871-34.706 76.86 0 8.284 6.716 15 15 15h38.541c8.284 0 15-6.716 15-15 1.579-10.462 6.391-20.531 14.438-28.587 20.02-20.011 52.515-20.011 72.534 0l24.013 24.013c20.011 20.011 52.514 20.011 72.534 0l11.879-11.878z" fill="#013772"/><path d="m332.244 179.758c20.011 20.011 52.515 20.011 72.534 0l11.879-11.879-36.271-36.271-48.146 48.145z" fill="#010043"/></g><g><path d="m203.769 477.062 24.264-24.264c46.584-46.593 46.584-122.241 0-168.825-46.592-46.592-122.241-46.592-168.833 0l-24.256 24.256c-46.592 46.592-46.592 122.241 0 168.833 46.584 46.584 122.233 46.584 168.825 0zm-120.551-120.807 12.13-12.13c20.011-20.019 52.515-20.019 72.534 0 20.011 20.01 20.879 51.646.869 71.665l-12.999 12.999c-20.019 20.011-52.523 20.011-72.534 0-20.02-20.02-20.019-52.523 0-72.534z" fill="#016ea1"/><path d="m228.034 283.973-60.152 60.152c20.011 20.01 20.88 51.646.869 71.665l-12.999 12.999c-20.019 20.011-52.523 20.011-72.534 0l-48.274 48.273c46.584 46.584 122.233 46.584 168.825 0l24.264-24.264c46.584-46.593 46.584-122.241.001-168.825z" fill="#013772"/><path d="m155.752 404.528c46.584 46.584 122.232 46.584 168.825 0 21.376-21.376 32.939-48.871 34.706-76.86 0-8.284-6.716-15-15-15h-38.541c-8.284 0-15 6.716-15 15-1.579 10.462-6.391 20.531-14.438 28.587-20.02 20.011-52.515 20.011-72.534 0l-24.013-24.013c-20.011-20.011-52.514-20.011-72.534 0l-11.88 11.878z" fill="#013772"/><path d="m155.752 404.528c46.584 46.584 122.232 46.584 168.825 0 21.376-21.376 32.939-48.871 34.706-76.86 0-8.284-6.716-15-15-15h-38.541c-8.284 0-15 6.716-15 15-1.579 10.462-6.391 20.531-14.438 28.587-20.02 20.011-52.515 20.011-72.534 0l-24.009-24.009-48.146 48.146z" fill="#010043"/></g></g></svg>