<?xml version="1.0" encoding="UTF-8" standalone="no"?><!DOCTYPE svg PUBLIC "-//W3C//DTD SVG 1.1//EN" "http://www.w3.org/Graphics/SVG/1.1/DTD/svg11.dtd"><svg width="100%" height="100%" viewBox="0 0 800 800" version="1.1" xmlns="http://www.w3.org/2000/svg" xmlns:xlink="http://www.w3.org/1999/xlink" xml:space="preserve" xmlns:serif="http://www.serif.com/" style="fill-rule:evenodd;clip-rule:evenodd;stroke-linejoin:round;stroke-miterlimit:2;"><path d="M656.237,264.243c-8.425,-3.161 -16.91,-6.104 -25.456,-8.831c1.417,-6.333 2.724,-12.703 3.921,-19.109c19.278,-102.965 6.673,-185.916 -36.347,-213.223c-41.192,-26.203 -108.746,1.104 -176.894,66.394c-6.7,6.442 -13.263,13.077 -19.689,19.905c-4.284,-4.536 -8.678,-8.976 -13.182,-13.319c-71.426,-69.813 -143.017,-99.219 -185.988,-71.822c-41.192,26.257 -53.434,104.232 -36.084,201.823c1.735,9.651 3.685,19.26 5.849,28.826c-10.133,3.167 -19.92,6.551 -29.279,10.134c-83.636,32.12 -137.119,82.481 -137.119,134.705c0,53.962 57.405,108.069 144.616,140.876c7.074,2.642 14.214,5.097 21.42,7.365c-2.34,10.242 -4.411,20.599 -6.212,31.071c-16.477,95.908 -3.625,172.037 37.484,198.131c42.461,26.945 113.689,-0.742 183.122,-67.516c5.492,-5.284 10.984,-10.863 16.477,-16.738c6.942,7.371 14.082,14.525 21.419,21.461c67.225,63.661 133.61,89.376 174.653,63.209c42.427,-27.035 56.218,-108.828 38.308,-208.337c-1.373,-7.6 -2.955,-15.357 -4.745,-23.271c5.009,-1.629 9.913,-3.312 14.714,-5.049c90.621,-33.061 149.657,-86.516 149.657,-141.147c-0.033,-52.478 -55.23,-103.165 -140.645,-135.538Zm-212.549,-146.721c58.377,-55.934 112.948,-78.011 137.828,-62.231c26.478,16.811 36.776,84.597 20.134,173.502c-1.098,5.791 -2.285,11.563 -3.559,17.318c-34.838,-8.703 -70.165,-14.845 -105.747,-18.385c-20.373,-32.231 -42.706,-62.913 -66.846,-91.837c5.91,-6.297 11.962,-12.419 18.157,-18.367l0.033,0Zm-204.195,326.829c7.151,15.2 14.626,30.214 22.425,45.04c7.942,15.128 16.218,30.033 24.83,44.715c-24.483,-2.924 -48.813,-7.23 -72.893,-12.902c6.986,-24.828 15.587,-50.614 25.638,-76.853Zm0,-87.457c-9.886,-25.678 -18.256,-50.94 -25.127,-75.333c22.573,-5.556 46.629,-10.098 71.707,-13.536c-8.404,14.404 -16.488,29.02 -24.254,43.846c-7.766,14.827 -15.225,29.834 -22.375,45.023l0.049,-0Zm17.96,43.737c10.413,-23.85 21.628,-47.242 33.645,-70.175c12.006,-22.922 24.786,-45.318 38.341,-67.19c23.529,-1.955 47.651,-2.986 72.02,-2.986c24.369,-0 48.639,1.031 72.151,3.004c13.412,21.823 26.116,44.142 38.111,66.954c11.995,22.813 23.358,46.096 34.09,69.85c-10.589,23.935 -21.925,47.423 -34.008,70.465c-11.984,22.922 -24.616,45.385 -37.896,67.389c-23.48,1.81 -47.783,2.805 -72.498,2.805c-24.715,0 -48.556,-0.85 -71.607,-2.497c-13.654,-21.944 -26.539,-44.438 -38.655,-67.48c-12.115,-23.042 -23.364,-46.421 -33.744,-70.139l0.05,0Zm283.596,88.507c7.964,-15.177 15.609,-30.552 22.936,-46.126c10.043,25.01 18.908,50.57 26.56,76.581c-24.363,6.025 -48.996,10.646 -73.799,13.843c8.37,-14.585 16.471,-29.351 24.303,-44.298Zm22.606,-132.226c-7.294,-15.261 -14.878,-30.341 -22.754,-45.24c-7.689,-14.694 -15.703,-29.207 -24.04,-43.538c25.226,3.51 49.43,8.179 72.119,13.879c-7.295,25.416 -15.747,50.414 -25.325,74.899Zm-161.867,-194.44c16.453,19.744 31.988,40.388 46.547,61.852c-31.141,-1.629 -62.304,-1.629 -93.489,-0c15.373,-22.331 31.108,-43.05 46.942,-61.852Zm-182.182,-106.078c26.461,-16.865 84.97,7.239 146.642,67.443c3.938,3.855 7.909,7.89 11.863,12.07c-24.264,28.92 -46.755,59.575 -67.323,91.764c-35.504,3.513 -70.761,9.558 -105.55,18.096c-2.01,-8.879 -3.823,-17.818 -5.437,-26.818c-14.912,-83.657 -5.042,-146.721 19.805,-162.555Zm-38.572,455.744c-6.591,-2.063 -13.099,-4.301 -19.525,-6.714c-38.555,-14.477 -70.405,-33.369 -92.269,-53.944c-19.575,-18.439 -29.494,-36.843 -29.494,-51.754c0,-31.685 42.939,-72.112 114.546,-99.527c8.996,-3.438 18.07,-6.581 27.22,-9.428c10.634,37.536 23.514,74.26 38.555,109.932c-15.22,36.166 -28.259,73.391 -39.033,111.435Zm183.105,169.503c-30.696,29.532 -61.441,50.469 -88.546,61.019c-24.352,9.464 -43.745,9.736 -55.46,2.298c-24.946,-15.834 -35.326,-76.979 -21.173,-158.99c1.681,-9.651 3.603,-19.302 5.767,-28.953c35.137,8.313 70.749,13.99 106.588,16.992c20.77,32.357 43.446,63.186 67.884,92.289c-4.91,5.302 -9.936,10.405 -15.06,15.345Zm38.588,-42.018c-16.015,-19.019 -31.997,-40.065 -47.584,-62.684c15.147,0.651 30.569,0.977 46.266,0.977c16.114,-0 32.064,-0.38 47.783,-1.158c-14.506,21.808 -30.014,42.79 -46.465,62.865Zm205.168,51.736c-4.712,27.939 -14.187,46.578 -25.901,54.034c-24.93,15.888 -78.232,-4.76 -135.702,-59.21c-6.591,-6.225 -13.182,-12.902 -19.888,-19.905c23.962,-29.217 46.107,-60.17 66.286,-92.651c36.037,-3.353 71.822,-9.43 107.098,-18.186c1.615,7.166 3.043,14.187 4.284,21.063c7.926,43.973 9.062,83.748 3.823,114.855Zm28.669,-185.736c-4.317,1.574 -8.765,3.094 -13.28,4.578c-11.061,-37.712 -24.444,-74.556 -40.055,-110.276c15.026,-35.243 27.884,-71.552 38.49,-108.683c8.09,2.588 15.949,5.302 23.512,8.179c73.189,27.723 117.841,68.764 117.841,100.305c0,33.659 -48.227,77.342 -126.508,105.897Z" style="fill-rule:nonzero;"/><path d="M401.409,477.466c0.077,0 0.154,0 0.231,0c38.867,0 70.85,-35.125 70.85,-77.812c-0,-42.686 -31.983,-77.812 -70.85,-77.812c-38.867,0 -70.85,35.126 -70.85,77.812c0,0.054 0,0.109 0,0.163c0,42.563 31.865,77.599 70.619,77.649Z" style="fill-rule:nonzero;"/></svg>